<?xml version="1.0" standalone="no"?>
<!DOCTYPE svg PUBLIC "-//W3C//DTD SVG 20010904//EN"
 "http://www.w3.org/TR/2001/REC-SVG-20010904/DTD/svg10.dtd">
<svg version="1.0" xmlns="http://www.w3.org/2000/svg"
 width="512.000000pt" height="512.000000pt" viewBox="0 0 512.000000 512.000000"
 preserveAspectRatio="xMidYMid meet">

<g transform="translate(0.000000,512.000000) scale(0.100000,-0.100000)"
fill="#000000" stroke="none">
<path d="M4200 4568 c-25 -13 -55 -38 -67 -57 -21 -32 -23 -45 -23 -192 l0
-158 -164 -3 c-180 -3 -192 -7 -240 -72 -29 -39 -29 -133 0 -172 48 -65 60
-69 240 -72 l164 -3 0 -158 c0 -147 2 -160 23 -192 32 -49 105 -83 158 -74 53
9 115 64 129 113 5 21 10 99 10 174 l0 137 159 3 c177 3 191 8 239 78 45 66
23 159 -51 214 -26 19 -45 21 -188 24 l-159 3 0 137 c0 75 -5 153 -10 172 -17
62 -95 120 -160 120 -9 0 -36 -10 -60 -22z"/>
<path d="M1849 4466 c-25 -6 -66 -24 -90 -38 -83 -49 -122 -104 -243 -346 -63
-126 -122 -232 -131 -236 -9 -3 -144 -6 -299 -6 -160 0 -308 -5 -342 -11 -213
-39 -404 -219 -459 -434 -13 -51 -15 -212 -15 -1208 0 -1277 -4 -1205 68
-1341 70 -134 187 -233 337 -284 l80 -27 1795 0 c1475 0 1805 2 1850 14 211
51 387 228 435 435 13 58 15 212 13 1233 l-3 1168 -23 62 c-13 34 -41 90 -63
123 -36 56 -41 60 -77 60 l-39 0 -6 -75 c-11 -143 -89 -258 -217 -319 -58 -27
-75 -31 -155 -31 -82 0 -97 3 -157 33 -126 62 -201 173 -214 321 l-7 69 -76 4
c-129 8 -236 79 -302 200 -32 60 -34 68 -34 164 0 91 3 107 29 163 l30 61 -22
46 c-35 70 -113 147 -185 180 l-62 29 -685 2 c-522 2 -696 -1 -731 -11z m821
-1166 c242 -30 438 -126 610 -299 142 -142 230 -308 272 -511 26 -126 21 -325
-11 -450 -45 -169 -127 -314 -256 -448 -131 -138 -287 -230 -475 -280 -133
-35 -352 -37 -484 -4 -191 48 -358 144 -491 284 -129 134 -210 276 -256 448
-21 74 -23 108 -23 260 0 161 3 182 27 263 57 184 135 318 261 443 165 164
367 264 591 293 99 12 139 12 235 1z"/>
<path d="M2459 2980 c-219 -35 -416 -177 -512 -369 -61 -121 -81 -214 -75
-350 12 -257 154 -475 383 -586 202 -99 408 -99 610 0 228 111 372 331 383
586 7 173 -38 320 -140 456 -144 191 -414 300 -649 263z"/>
</g>
</svg>
