<?xml version="1.0" standalone="no"?>
<!DOCTYPE svg PUBLIC "-//W3C//DTD SVG 20010904//EN"
 "http://www.w3.org/TR/2001/REC-SVG-20010904/DTD/svg10.dtd">
<svg version="1.0" xmlns="http://www.w3.org/2000/svg"
 width="512.000000pt" height="512.000000pt" viewBox="0 0 512.000000 512.000000"
 preserveAspectRatio="xMidYMid meet">

<g transform="translate(0.000000,512.000000) scale(0.100000,-0.100000)"
fill="#000000" stroke="none">
<path d="M1012 5106 c-59 -20 -451 -263 -549 -341 -408 -326 -567 -905 -388
-1405 73 -201 163 -330 402 -571 l175 -177 -22 -83 c-47 -182 -37 -444 24
-630 26 -80 711 -1653 754 -1733 31 -56 85 -105 151 -137 65 -32 196 -33 263
-2 63 29 134 97 166 158 43 85 41 161 -12 424 -25 124 -45 226 -43 227 1 2 54
-44 117 -102 394 -360 715 -542 1155 -654 283 -72 322 -75 935 -75 537 0 546
0 591 21 60 28 125 93 152 153 16 34 22 66 22 121 0 87 -22 145 -76 200 l-34
35 86 85 c100 100 155 188 199 317 68 206 44 437 -67 628 l-35 59 11 73 c22
150 9 300 -33 363 -30 46 -87 74 -148 73 -56 -1 -184 -65 -278 -139 l-59 -46
-225 0 -225 0 -68 51 c-79 59 -191 120 -242 132 -43 10 -104 -4 -145 -34 -48
-34 -68 -96 -74 -225 l-5 -114 -45 6 c-60 8 -107 39 -136 89 -13 23 -133 256
-266 517 -243 475 -308 590 -362 636 -42 34 -91 32 -129 -5 -46 -47 -41 -86
29 -189 31 -48 172 -312 312 -587 221 -434 261 -507 305 -550 60 -61 122 -93
209 -108 l63 -11 -28 -60 c-43 -93 -61 -170 -66 -291 -5 -123 9 -212 50 -315
74 -182 224 -340 399 -419 131 -60 156 -63 506 -70 l324 -6 29 -33 c40 -45 39
-84 -5 -128 l-34 -34 -458 0 c-585 0 -727 13 -999 91 -353 101 -650 272 -954
550 -69 63 -143 131 -165 151 l-41 37 25 17 c55 37 169 163 208 229 173 294
133 669 -97 907 -39 42 -50 48 -86 48 -48 0 -78 -18 -95 -59 -16 -41 -7 -73
35 -120 97 -107 147 -236 148 -381 1 -142 -36 -248 -123 -359 -37 -47 -150
-141 -170 -141 -4 0 -13 28 -19 62 -17 89 -30 117 -62 133 -55 29 -117 8 -140
-46 -12 -30 -5 -72 79 -498 51 -256 93 -483 92 -504 0 -30 -7 -46 -33 -72 -19
-19 -46 -37 -60 -41 -42 -10 -94 4 -123 34 -17 17 -149 308 -376 827 -192 440
-360 830 -373 867 -80 221 -71 485 24 708 70 163 206 329 349 424 157 104 310
155 492 163 140 6 176 15 195 53 24 46 19 88 -14 121 -29 28 -32 29 -134 29
-251 0 -498 -83 -697 -234 l-85 -65 -113 112 c-190 188 -258 317 -269 512 -7
120 14 214 72 333 70 141 141 206 396 362 112 69 218 138 236 153 18 16 45 54
60 85 23 47 28 70 28 132 0 85 -21 142 -74 203 -68 77 -210 115 -309 83z m137
-200 c28 -15 51 -53 51 -86 0 -49 -25 -72 -204 -181 -241 -148 -292 -186 -369
-270 -156 -170 -238 -402 -224 -629 8 -119 29 -202 77 -307 55 -119 89 -163
236 -313 l133 -135 -47 -71 c-26 -39 -52 -79 -57 -88 -9 -15 -29 1 -145 121
-167 170 -228 249 -291 378 -195 398 -121 874 186 1194 84 87 144 134 285 222
308 191 313 193 369 165z m2619 -3022 c31 -20 88 -64 126 -96 l70 -60 50 8
c53 9 355 11 461 3 l60 -4 79 67 c73 63 156 118 177 118 14 0 10 -141 -6 -227
-21 -109 -20 -116 24 -181 55 -81 70 -113 92 -199 24 -97 24 -180 -1 -278 -53
-208 -210 -363 -420 -416 -73 -19 -104 -21 -269 -17 -202 5 -253 16 -367 83
-72 42 -164 140 -206 221 -106 201 -89 418 48 617 39 56 40 65 19 162 -17 82
-20 235 -5 235 6 0 37 -16 68 -36z"/>
<path d="M3929 1376 c-43 -14 -75 -69 -65 -110 19 -77 111 -103 167 -47 38 38
39 87 4 129 -29 35 -60 43 -106 28z"/>
<path d="M4503 1382 c-12 -2 -33 -15 -47 -29 -35 -35 -35 -90 0 -132 50 -60
152 -31 167 47 5 29 -13 85 -32 97 -20 12 -65 21 -88 17z"/>
<path d="M4152 1064 c-67 -34 -79 -104 -30 -178 70 -107 146 -114 229 -22 59
65 62 130 8 182 -27 25 -38 29 -102 32 -52 2 -81 -2 -105 -14z"/>
<path d="M2196 3279 c-17 -19 -26 -43 -26 -64 0 -21 9 -45 26 -64 21 -25 33
-31 66 -31 53 0 77 14 94 57 12 27 13 42 4 69 -15 44 -45 64 -96 64 -35 0 -47
-5 -68 -31z"/>
</g>
</svg>
