<svg width="27" height="24" viewBox="0 0 27 24" fill="none" xmlns="http://www.w3.org/2000/svg">
<path d="M15.1219 9C14.175 9 10.1156 9.09375 7.5 13.0312V9C7.5 6.51562 5.48438 4.5 3 4.5C2.17406 4.5 1.5 5.175 1.5 6C1.5 6.825 2.17406 7.5 3 7.5C3.82594 7.5 4.5 8.17406 4.5 9V21C4.5 22.6523 5.84766 24 7.5 24H15.75C16.166 24 16.5 23.666 16.5 23.2922V22.5C16.5 21.6741 15.8259 21 15 21H13.5L19.5 16.5V23.25C19.5 23.666 19.834 24 20.25 24H21.75C22.166 24 22.5 23.666 22.5 23.25V13.5891C22.0195 13.7121 21.5212 13.8 21 13.8C18.1031 13.8 15.6797 11.7375 15.1219 9ZM22.5 4.5H19.5L16.5 1.5V7.8C16.5 10.2844 18.5156 12.2578 21 12.2578C23.4844 12.2578 25.5 10.2844 25.5 7.8V1.5L22.5 4.5ZM19.125 8.25C18.709 8.25 18.375 7.91602 18.375 7.5C18.375 7.08398 18.709 6.75 19.125 6.75C19.541 6.75 19.875 7.08398 19.875 7.5C19.875 7.91602 19.5422 8.25 19.125 8.25ZM22.875 8.25C22.459 8.25 22.125 7.91602 22.125 7.5C22.125 7.08398 22.459 6.75 22.875 6.75C23.291 6.75 23.625 7.08398 23.625 7.5C23.625 7.91602 23.2922 8.25 22.875 8.25Z" fill="black"/>
</svg>
