<?xml version="1.0" standalone="no"?>
<!DOCTYPE svg PUBLIC "-//W3C//DTD SVG 20010904//EN"
 "http://www.w3.org/TR/2001/REC-SVG-20010904/DTD/svg10.dtd">
<svg version="1.0" xmlns="http://www.w3.org/2000/svg"
 width="512.000000pt" height="512.000000pt" viewBox="0 0 512.000000 512.000000"
 preserveAspectRatio="xMidYMid meet">

<g transform="translate(0.000000,512.000000) scale(0.100000,-0.100000)"
fill="#000000" stroke="none">
<path d="M3980 3828 c-28 -7 -235 -209 -995 -969 l-960 -959 -415 416 c-228
228 -432 424 -452 435 -69 35 -179 20 -236 -34 -66 -61 -86 -174 -45 -252 31
-59 1018 -1040 1065 -1060 50 -20 124 -19 173 4 28 13 364 343 1086 1067 1025
1027 1047 1050 1058 1099 38 166 -110 301 -279 253z"/>
</g>
</svg>
