<svg width="31" height="40" viewBox="0 0 31 40" fill="none" xmlns="http://www.w3.org/2000/svg">
<path d="M13.5723 38.7879L13.5706 38.7858C11.5338 36.2808 8.2529 31.9954 5.48404 27.4897C4.09954 25.2368 2.84894 22.9382 1.94586 20.7861C1.03936 18.6259 0.5 16.6527 0.5 15.0389C0.5 7.00921 7.00921 0.5 15.0389 0.5C23.0656 0.5 29.5779 7.00928 29.5779 15.0389C29.5779 16.652 29.0345 18.6248 28.1225 20.7851C27.214 22.9372 25.9568 25.2359 24.5678 27.4891C21.7901 31.9949 18.5091 36.2805 16.5052 38.7884C15.7418 39.7374 14.3355 39.7372 13.5723 38.7879ZM17.6995 14.1702L17.6855 14.1773L17.672 14.1852L13.374 16.7046C12.7234 17.0611 12.4241 17.7055 12.4241 18.3559V20.1183C12.4241 21.173 13.2784 22.0278 14.334 22.0278C15.3895 22.0278 16.2439 21.173 16.2439 20.1183V19.4483L19.5078 17.5308C21.4068 16.5734 22.5884 14.6573 22.5884 12.5312C22.5884 9.44224 20.0782 6.92967 16.9907 6.92967H12.2191C9.6105 6.92967 7.48944 9.05073 7.48944 11.6594C7.48944 12.7323 8.36242 13.5297 9.39934 13.5297C10.4457 13.5297 11.3092 12.6839 11.3092 11.6594C11.3092 11.1581 11.7174 10.7495 12.2191 10.7495H16.9907C17.9698 10.7495 18.7686 11.5468 18.7686 12.5312C18.7686 13.1993 18.4026 13.8152 17.6995 14.1702ZM16.5964 25.4054C16.5964 24.2025 15.5911 23.1431 14.334 23.1431C13.0846 23.1431 12.0716 24.156 12.0716 25.4054C12.0716 26.6696 13.0996 27.6282 14.334 27.6282C15.5759 27.6282 16.5964 26.6231 16.5964 25.4054Z" stroke="black"/>
</svg>
