<svg width="49" height="64" viewBox="0 0 49 64" fill="none" xmlns="http://www.w3.org/2000/svg">
<path d="M24.0623 0C10.7729 0 0 10.7729 0 24.0623C0 35.0157 14.5503 54.5161 21.0922 62.5619C22.6337 64.4794 25.4909 64.4794 27.0324 62.5619C33.4615 54.5161 48.1246 35.0157 48.1246 24.0623C48.1246 10.7729 37.3467 0 24.0623 0ZM19.5506 11.8875H27.1851C31.6827 11.8875 35.3415 15.5489 35.3415 20.05C35.3415 23.1574 33.6123 25.9539 30.8298 27.3462L25.1902 30.6595V32.1893C25.1902 33.435 24.1814 34.4444 22.9344 34.4444C21.6873 34.4444 20.6785 33.435 20.6785 32.1893V29.3695C20.6785 28.5729 21.038 27.8327 21.7923 27.4238L28.6797 23.3865C30.0565 22.6914 30.8298 21.4401 30.8298 20.05C30.8298 18.0338 29.1943 16.3992 27.1851 16.3992H19.5506C18.3057 16.3992 17.2948 17.4115 17.2948 18.655C17.2948 19.8379 16.286 20.8474 15.0389 20.8474C13.7919 20.8474 12.7831 19.9006 12.7831 18.655C12.7831 14.923 15.8186 11.8875 19.5506 11.8875ZM22.9344 37.8289C24.4923 37.8289 25.7542 39.1542 25.7542 40.6487C25.7542 42.1432 24.4916 43.4051 22.9344 43.4051C21.3772 43.4051 20.1146 42.2059 20.1146 40.6487C20.1146 39.0915 21.3772 37.8289 22.9344 37.8289Z" fill="black"/>
</svg>
