<?xml version="1.0" ?>
<!-- Uploaded to: SVG Repo, www.svgrepo.com, Generator: SVG Repo Mixer Tools -->
<svg fill="#000000" width="800px" height="800px" viewBox="0 0 100 100" version="1.1" xml:space="preserve" xmlns="http://www.w3.org/2000/svg" xmlns:xlink="http://www.w3.org/1999/xlink">
<style type="text/css">
	.st0{display:none;}
	.st1{display:inline;fill:none;}
	.st2{display:inline;}
</style>
<g class="st0" id="bounding_squares">
<rect class="st1" height="100" id="XMLID_4_" width="100"/>
</g>
<g id="icons">
<g class="st0"/>
<path d="M83.4863281,75l8.9277344-17.8554688c0.3883057-0.7766113,0.2180786-1.6796265-0.3495483-2.2727661   c-0.0095825-0.0111084-0.0149536-0.0253296-0.0254517-0.0358276C83.6005859,46.3974609,72.3808594,41.75,60.4472656,41.75   h-5.5094604C53.9886475,36.4301147,49.3389893,32.375,43.75,32.375c-6.2724609,0-11.375,5.1030273-11.375,11.375   s5.1025391,11.375,11.375,11.375c2.9082031,0,5.5563354-1.1063232,7.5695801-2.9081421l-2.9006348,8.7020874l-5.8099976,1.9366455   C42.6126709,62.7366333,42.625,62.619812,42.625,62.5c0-2.8261719-2.2988281-5.125-5.125-5.125H21.875   c-1.1044922,0-2,0.8955078-2,2v3.6611328c0,5.1655273-2.0117188,10.0219727-5.6640625,13.6748047   C9.8027344,81.1191406,7.375,86.9799805,7.375,93.2138672V93.75c0,1.1044922,0.8955078,2,2,2H31.25c1.1044922,0,2-0.8955078,2-2   V73.6987305c3.635376-0.6473389,6.6759644-3.0286865,8.2397461-6.2536011l9.1430664-3.0476685   c0.5966797-0.1992188,1.0654297-0.6679688,1.2646484-1.2651367l5.4614868-16.3845215l13.0580444,7.8347168l9.1181641,15.1962891   c0.3551025,0.5917969,0.9689941,0.9233398,1.6100464,0.9580688l-1.6842651,3.3685913   c-0.28125,0.5629883-0.28125,1.2260742,0,1.7890625l9.375,18.75c0.3505859,0.7006836,1.0566406,1.105957,1.7910156,1.105957   c0.2998047,0,0.6054688-0.0678711,0.8925781-0.2114258c0.9882813-0.4941406,1.3886719-1.6953125,0.8945313-2.6835938L83.4863281,75   z M31.25,69.875c-1.1044922,0-2,0.8955078-2,2V91.75H11.4291992c0.3427734-4.6142578,2.3046875-8.9052734,5.6098633-12.2109375   C21.4472656,75.1308594,23.875,69.2700195,23.875,63.0361328V61.375H37.5c0.6201172,0,1.125,0.5048828,1.125,1.125   C38.625,66.5664063,35.3164063,69.875,31.25,69.875z M43.75,51.125c-4.0664063,0-7.375-3.3085938-7.375-7.375   s3.3085938-7.375,7.375-7.375s7.375,3.3085938,7.375,7.375S47.8164063,51.125,43.75,51.125z M73.5898438,52.0961914   c-0.1689453-0.2817383-0.4042969-0.5170898-0.6855469-0.6860352l-9.201416-5.520874   c9.1651611,0.7214966,17.7125244,4.4783325,24.4721069,10.788147l-5.380188,10.7603149L73.5898438,52.0961914z"/>
</g>
</svg>