<svg width="27" height="24" viewBox="0 0 27 24" fill="none" xmlns="http://www.w3.org/2000/svg">
<g clip-path="url(#clip0_122_971)">
<path d="M15.5954 0.930469C15.6845 0.393516 16.1485 0 16.6923 0C17.0438 0 17.372 0.165 17.5829 0.445406L18.3751 1.5H20.8173C21.4126 1.5 21.9892 1.73719 22.411 2.15906L23.2501 3H25.8751C26.4985 3 27.0001 3.50391 27.0001 4.125V5.25C27.0001 7.32188 25.322 9 23.2501 9H20.0017L19.7626 10.4297L14.5126 7.42969L15.5954 0.930469ZM21.0001 3C20.5876 3 20.2501 3.33562 20.2501 3.75C20.2501 4.16437 20.5876 4.5 21.0001 4.5C21.4126 4.5 21.7501 4.16437 21.7501 3.75C21.7501 3.33562 21.4126 3 21.0001 3ZM19.5001 12.0047V22.5C19.5001 23.3297 18.8298 24 18.0001 24H16.5001C15.6704 24 15.0001 23.3297 15.0001 22.5V17.1C13.8329 17.6766 12.6001 18 11.2501 18C9.9001 18 8.6251 17.6766 7.5001 17.1V22.5C7.5001 23.3297 6.82979 24 6.0001 24H4.5001C3.67182 24 3.0001 23.3297 3.0001 22.5V11.7094C1.65151 11.1984 0.5926 10.0547 0.226787 8.59219L0.044903 7.86563C-0.156041 7.05938 0.332631 6.24375 1.13635 6.00469C1.93979 5.84531 2.75447 6.33281 2.95557 7.13437L3.13744 7.86563C3.30432 8.53125 3.90432 8.95781 4.59244 8.95781H14.2407L19.5001 12.0047Z" fill="black"/>
</g>
<defs>
<clipPath id="clip0_122_971">
<rect width="27" height="24" fill="white"/>
</clipPath>
</defs>
</svg>
