<?xml version="1.0" standalone="no"?>
<!DOCTYPE svg PUBLIC "-//W3C//DTD SVG 20010904//EN"
 "http://www.w3.org/TR/2001/REC-SVG-20010904/DTD/svg10.dtd">
<svg version="1.0" xmlns="http://www.w3.org/2000/svg"
 width="512.000000pt" height="512.000000pt" viewBox="0 0 512.000000 512.000000"
 preserveAspectRatio="xMidYMid meet">

<g transform="translate(0.000000,512.000000) scale(0.100000,-0.100000)"
fill="#000000" stroke="none">
<path d="M710 4953 c-14 -2 -56 -15 -95 -28 -141 -50 -263 -172 -322 -321
l-28 -69 -3 -1943 c-2 -1717 -1 -1950 13 -2009 42 -181 190 -339 370 -396 l70
-22 1335 0 1335 0 74 24 c164 54 292 180 352 347 17 48 23 89 26 216 3 87 3
168 -1 181 -19 77 -117 103 -178 48 l-33 -29 -5 -164 c-5 -153 -7 -167 -33
-220 -33 -67 -90 -121 -166 -157 l-56 -26 -1310 0 c-1284 0 -1311 0 -1365 20
-76 28 -159 110 -188 188 l-22 58 0 1914 c0 1913 0 1914 21 1970 25 67 94 141
164 175 l50 25 863 3 862 2 0 -347 c0 -272 4 -362 15 -411 42 -177 172 -321
353 -391 l67 -26 373 -3 372 -3 0 -302 c0 -282 1 -304 20 -334 41 -67 149 -63
185 6 14 27 15 79 13 411 l-3 380 -620 620 -620 620 -930 -1 c-512 -1 -941 -4
-955 -6z m2693 -1171 c-32 -2 -157 -2 -278 0 -213 3 -222 4 -275 29 -66 32
-123 86 -158 154 l-27 50 -3 285 -3 285 401 -400 400 -400 -57 -3z"/>
<path d="M4237 2972 c-36 -23 -1451 -1262 -1465 -1283 -20 -30 -134 -590 -127
-625 9 -50 56 -84 114 -84 93 0 571 31 591 38 37 14 1478 1283 1490 1313 25
60 11 81 -236 364 -130 149 -246 275 -258 282 -30 18 -77 16 -109 -5z m198
-418 c80 -91 145 -169 143 -173 -2 -5 -298 -266 -658 -582 l-655 -574 -187
-10 c-148 -8 -188 -7 -188 2 0 7 16 88 35 180 31 144 39 172 63 195 55 54
1286 1128 1294 1128 4 0 73 -75 153 -166z"/>
</g>
</svg>
