<svg width="58" height="58" viewBox="0 0 58 58" fill="none" xmlns="http://www.w3.org/2000/svg">
<g filter="url(#filter0_d_32_310)">
<circle cx="27" cy="25" r="24" fill="#FAEACD"/>
</g>
<path d="M27 8.33333C17.795 8.33333 10.3334 15.795 10.3334 25C10.3334 34.205 17.795 41.6667 27 41.6667C36.205 41.6667 43.6667 34.205 43.6667 25C43.6667 15.795 36.205 8.33333 27 8.33333Z" fill="url(#paint0_linear_32_310)"/>
<path d="M29.2558 29.4175H33.5691L34.2466 25.0358H29.2558V22.6408C29.2558 20.8208 29.8508 19.2067 31.5533 19.2067H34.2891V15.3833C33.8083 15.3183 32.7916 15.1767 30.8708 15.1767C26.8591 15.1767 24.5075 17.295 24.5075 22.1217V25.0367H20.3833V29.4183H24.5066V41.4617C25.3233 41.5833 26.1508 41.6667 27 41.6667C27.7675 41.6667 28.5166 41.5967 29.2558 41.4967V29.4175Z" fill="#FEFDFA"/>
<defs>
<filter id="filter0_d_32_310" x="0" y="0" width="58" height="58" filterUnits="userSpaceOnUse" color-interpolation-filters="sRGB">
<feFlood flood-opacity="0" result="BackgroundImageFix"/>
<feColorMatrix in="SourceAlpha" type="matrix" values="0 0 0 0 0 0 0 0 0 0 0 0 0 0 0 0 0 0 127 0" result="hardAlpha"/>
<feOffset dx="2" dy="4"/>
<feGaussianBlur stdDeviation="2.5"/>
<feComposite in2="hardAlpha" operator="out"/>
<feColorMatrix type="matrix" values="0 0 0 0 0 0 0 0 0 0 0 0 0 0 0 0 0 0 0.25 0"/>
<feBlend mode="normal" in2="BackgroundImageFix" result="effect1_dropShadow_32_310"/>
<feBlend mode="normal" in="SourceGraphic" in2="effect1_dropShadow_32_310" result="shape"/>
</filter>
<linearGradient id="paint0_linear_32_310" x1="15.3275" y1="13.3275" x2="40.8459" y2="38.8458" gradientUnits="userSpaceOnUse">
<stop stop-color="#2AA4F4"/>
<stop offset="1" stop-color="#007AD9"/>
</linearGradient>
</defs>
</svg>
