<?xml version="1.0" standalone="no"?>
<!DOCTYPE svg PUBLIC "-//W3C//DTD SVG 20010904//EN"
 "http://www.w3.org/TR/2001/REC-SVG-20010904/DTD/svg10.dtd">
<svg version="1.0" xmlns="http://www.w3.org/2000/svg"
 width="512.000000pt" height="512.000000pt" viewBox="0 0 512.000000 512.000000"
 preserveAspectRatio="xMidYMid meet">
<metadata>
Created by potrace 1.16, written by Peter Selinger 2001-2019
</metadata>
<g transform="translate(0.000000,512.000000) scale(0.100000,-0.100000)"
fill="#000000" stroke="none">
<path d="M2260 5101 c-332 -58 -630 -192 -882 -398 -100 -81 -263 -256 -341
-364 -87 -122 -204 -355 -250 -500 -125 -388 -123 -791 4 -1174 223 -670 814
-1159 1517 -1255 l92 -13 0 -228 0 -229 -231 0 c-251 0 -278 -5 -319 -58 -27
-34 -42 -95 -34 -139 9 -47 66 -110 112 -123 21 -5 135 -10 255 -10 l217 0 0
-252 c0 -235 2 -255 20 -286 30 -48 75 -72 140 -72 65 0 110 24 140 72 18 31
20 51 20 286 l0 252 218 0 c119 0 233 5 254 10 46 13 103 76 112 123 8 44 -7
105 -34 139 -41 53 -68 58 -319 58 l-231 0 0 229 0 228 92 13 c532 72 995 362
1297 810 320 477 403 1073 224 1623 -47 143 -164 376 -250 496 -78 108 -241
283 -341 364 -238 194 -507 321 -827 389 -144 30 -503 35 -655 9z m502 -321
c629 -77 1172 -582 1302 -1212 68 -331 22 -688 -130 -989 -226 -451 -639 -754
-1144 -840 -123 -21 -375 -17 -507 9 -851 168 -1399 981 -1227 1822 95 462
427 880 860 1081 263 122 547 165 846 129z"/>
</g>
</svg>
