<svg width="18" height="24" viewBox="0 0 18 24" fill="none" xmlns="http://www.w3.org/2000/svg">
<g clip-path="url(#clip0_122_945)">
<path d="M17.25 8.25C17.25 3.69375 13.5562 0 9 0C4.44375 0 0.75 3.69375 0.75 8.25C0.75 12.2934 3.66094 15.6516 7.5 16.3172V17.9602H5.25C4.83581 17.9602 4.5 18.2959 4.5 18.7102V20.2102C4.5 20.6243 4.83581 20.9602 5.25 20.9602H7.5V23.2102C7.5 23.6243 7.83581 23.9602 8.25 23.9602H9.75C10.1643 23.9602 10.5 23.6243 10.5 23.2102V20.9602H12.75C13.1643 20.9602 13.5 20.6243 13.5 20.2102V18.7102C13.5 18.2959 13.1643 17.9602 12.75 17.9602H10.5V16.3172C14.3391 15.6516 17.25 12.2953 17.25 8.25ZM9 12.75C6.51891 12.75 4.5 10.7311 4.5 8.25C4.5 5.76844 6.51891 3.75 9 3.75C11.4816 3.75 13.5 5.76844 13.5 8.25C13.5 10.7297 11.4797 12.75 9 12.75Z" fill="black"/>
</g>
<defs>
<clipPath id="clip0_122_945">
<rect width="18" height="24" fill="white"/>
</clipPath>
</defs>
</svg>
