<?xml version="1.0" standalone="no"?>
<!DOCTYPE svg PUBLIC "-//W3C//DTD SVG 20010904//EN"
 "http://www.w3.org/TR/2001/REC-SVG-20010904/DTD/svg10.dtd">
<svg version="1.0" xmlns="http://www.w3.org/2000/svg"
 width="512.000000pt" height="512.000000pt" viewBox="0 0 512.000000 512.000000"
 preserveAspectRatio="xMidYMid meet">

<g transform="translate(0.000000,512.000000) scale(0.100000,-0.100000)"
fill="#000000" stroke="none">
<path d="M2470 4634 c-186 -36 -350 -157 -430 -317 -22 -43 -40 -86 -40 -93 0
-12 -111 -14 -704 -14 l-703 0 -33 -22 c-47 -32 -71 -68 -77 -116 -7 -55 26
-123 75 -154 l37 -23 701 -3 701 -3 23 -57 c56 -136 152 -238 285 -302 93 -44
159 -60 255 -60 96 0 162 16 255 60 133 64 229 166 285 302 l23 57 701 3 701
3 37 23 c49 31 82 99 75 154 -6 48 -30 84 -77 116 l-33 22 -703 0 c-593 0
-704 2 -704 14 0 7 -18 49 -40 93 -68 136 -193 244 -340 293 -64 21 -214 35
-270 24z m209 -345 c251 -125 162 -499 -119 -499 -138 0 -244 93 -265 232 -9
58 14 139 54 195 42 57 135 103 211 103 44 0 71 -7 119 -31z"/>
<path d="M3552 3139 c-231 -28 -415 -187 -490 -423 -23 -72 -22 -253 2 -321
95 -268 301 -418 572 -417 225 1 418 126 517 334 l42 88 155 0 c131 0 162 3
197 20 106 48 120 195 25 268 -35 27 -38 27 -206 30 l-171 4 -42 86 c-23 48
-63 111 -89 141 -125 140 -321 213 -512 190z m197 -344 c90 -45 141 -129 141
-235 0 -105 -51 -190 -139 -235 -138 -69 -292 -20 -360 116 -43 85 -43 152 0
238 68 135 222 185 358 116z"/>
<path d="M570 2698 c-117 -60 -115 -225 4 -279 39 -18 87 -19 1026 -19 950 0
987 1 1027 20 106 48 120 195 25 268 l-35 27 -1001 3 -1001 2 -45 -22z"/>
<path d="M1343 1630 c-85 -22 -129 -44 -206 -101 -85 -63 -165 -175 -200 -280
-5 -15 -28 -17 -174 -20 -154 -4 -171 -6 -205 -27 -49 -31 -82 -99 -75 -154 6
-48 30 -84 77 -116 31 -21 43 -22 200 -22 l166 0 24 -57 c54 -133 158 -246
282 -308 232 -114 493 -71 673 109 182 184 224 440 109 676 -48 98 -160 211
-255 257 -129 64 -279 79 -416 43z m257 -321 c173 -78 214 -296 80 -429 -133
-134 -351 -93 -429 80 -27 59 -28 159 -2 216 24 52 83 111 135 135 57 26 157
25 216 -2z"/>
<path d="M2525 1221 c-49 -12 -83 -40 -106 -88 -37 -76 -15 -149 61 -200 l33
-23 1007 0 1007 0 33 23 c47 31 71 67 77 115 7 55 -26 123 -75 154 l-37 23
-985 2 c-542 0 -999 -2 -1015 -6z"/>
</g>
</svg>
