<svg width="58" height="58" viewBox="0 0 58 58" fill="none" xmlns="http://www.w3.org/2000/svg">
<g filter="url(#filter0_d_32_311)">
<circle cx="27" cy="25" r="24" fill="#FAEACD"/>
</g>
<path d="M42.3632 25.3838C42.3632 24.3032 42.2587 23.1877 42.0844 22.142H26.991V28.3118H35.6357C35.2871 30.2987 34.1368 32.0416 32.4288 33.157L37.5877 37.1657C40.6203 34.3422 42.3632 30.229 42.3632 25.3838Z" fill="#4280EF"/>
<path d="M26.991 41C31.3134 41 34.9386 39.5708 37.5878 37.1308L32.4288 33.157C30.9996 34.133 29.1522 34.6908 26.991 34.6908C22.8081 34.6908 19.2875 31.8673 17.9977 28.1026L12.6993 32.181C15.4182 37.5839 20.9258 41 26.991 41Z" fill="#34A353"/>
<path d="M17.9977 28.0678C17.3354 26.0809 17.3354 23.9197 17.9977 21.9328L12.6993 17.8196C10.4336 22.3511 10.4336 27.6843 12.6993 32.181L17.9977 28.0678Z" fill="#F6B704"/>
<path d="M26.991 15.3447C29.2568 15.3099 31.4877 16.1813 33.126 17.7499L37.6923 13.1487C34.7991 10.4298 30.9648 8.96575 26.991 9.00061C20.9258 9.00061 15.4182 12.4167 12.6993 17.8196L17.9977 21.9328C19.2875 18.1333 22.8081 15.3447 26.991 15.3447Z" fill="#E54335"/>
<defs>
<filter id="filter0_d_32_311" x="0" y="0" width="58" height="58" filterUnits="userSpaceOnUse" color-interpolation-filters="sRGB">
<feFlood flood-opacity="0" result="BackgroundImageFix"/>
<feColorMatrix in="SourceAlpha" type="matrix" values="0 0 0 0 0 0 0 0 0 0 0 0 0 0 0 0 0 0 127 0" result="hardAlpha"/>
<feOffset dx="2" dy="4"/>
<feGaussianBlur stdDeviation="2.5"/>
<feComposite in2="hardAlpha" operator="out"/>
<feColorMatrix type="matrix" values="0 0 0 0 0 0 0 0 0 0 0 0 0 0 0 0 0 0 0.25 0"/>
<feBlend mode="normal" in2="BackgroundImageFix" result="effect1_dropShadow_32_311"/>
<feBlend mode="normal" in="SourceGraphic" in2="effect1_dropShadow_32_311" result="shape"/>
</filter>
</defs>
</svg>
