<svg width="64" height="55" viewBox="0 0 64 55" fill="none" xmlns="http://www.w3.org/2000/svg">
<path d="M0 18.5935V17.8685C0 9.13096 6.315 1.67846 14.925 0.243459C20.5125 -0.705291 26.425 1.15221 30.5 5.23346L32 6.73096L33.3875 5.23346C37.575 1.15221 43.375 -0.705291 49.075 0.243459C57.6875 1.67846 64 9.13096 64 17.8685V18.5935C64 23.781 61.85 28.7435 58.05 32.281L35.4625 53.3685C34.525 54.2435 33.2875 54.731 32 54.731C30.7125 54.731 29.475 54.2435 28.5375 53.3685L5.94875 32.281C2.15375 28.7435 3.75e-05 23.781 3.75e-05 18.5935H0Z" fill="black"/>
</svg>
