<svg width="72" height="64" viewBox="0 0 72 64" fill="none" xmlns="http://www.w3.org/2000/svg">
<path d="M71.975 31.9375C71.975 34.1875 70.1 35.95 67.975 35.95H63.975L64.0625 55.9625C64.0625 56.3125 64.0375 56.6375 64 56.975V59C64 61.7625 61.7625 64 59 64H57C56.8625 64 56.725 63.8875 56.5875 63.9875C56.4125 63.8875 56.2375 64 56.0625 64H49C46.2375 64 44 61.7625 44 59V48C44 45.7875 42.2125 44 40 44H32C29.7875 44 28 45.7875 28 48V59C28 61.7625 25.7625 64 23 64H16.0125C15.825 64 15.6375 63.9875 15.45 63.975C15.3 63.9875 15.15 64 15 64H13C10.2388 64 8 61.7625 8 59V45C8 44.8875 8.00375 44.7625 8.01125 44.65V35.95H4.00625C1.7525 35.95 0 34.1875 0 31.9375C0 30.8125 0.3755 29.8125 1.25125 28.9375L33.3 1.002C34.175 0.12525 35.175 0 36.05 0C36.925 0 37.925 0.2505 38.6875 0.87675L70.6 28.9375C71.6 29.8125 72.1125 30.8125 71.975 31.9375Z" fill="black"/>
</svg>
