<?xml version="1.0" standalone="no"?>
<!DOCTYPE svg PUBLIC "-//W3C//DTD SVG 20010904//EN"
 "http://www.w3.org/TR/2001/REC-SVG-20010904/DTD/svg10.dtd">
<svg version="1.0" xmlns="http://www.w3.org/2000/svg"
 width="512.000000pt" height="512.000000pt" viewBox="0 0 512.000000 512.000000"
 preserveAspectRatio="xMidYMid meet">

<g transform="translate(0.000000,512.000000) scale(0.100000,-0.100000)"
fill="#000000" stroke="none">
<path d="M1405 4579 c-76 -11 -205 -73 -267 -128 -58 -51 -115 -136 -148 -221
l-25 -65 -3 -1773 c-3 -1971 -8 -1818 65 -1848 43 -19 93 -5 123 33 20 25 20
39 20 844 l0 819 948 0 c1039 0 1058 1 1232 59 308 104 545 309 686 596 153
312 164 648 30 957 -177 409 -542 677 -991 728 -110 12 -1583 11 -1670 -1z
m1820 -242 c356 -108 610 -373 697 -724 27 -111 29 -281 3 -398 -79 -369 -373
-662 -746 -742 -78 -17 -154 -18 -1044 -18 l-960 0 0 835 0 835 27 57 c34 73
104 141 171 167 51 20 70 20 907 18 l855 -2 90 -28z"/>
</g>
</svg>
