<?xml version="1.0" standalone="no"?>
<!DOCTYPE svg PUBLIC "-//W3C//DTD SVG 20010904//EN"
 "http://www.w3.org/TR/2001/REC-SVG-20010904/DTD/svg10.dtd">
<svg version="1.0" xmlns="http://www.w3.org/2000/svg"
 width="512.000000pt" height="512.000000pt" viewBox="0 0 512.000000 512.000000"
 preserveAspectRatio="xMidYMid meet">

<g transform="translate(0.000000,512.000000) scale(0.100000,-0.100000)"
fill="#000000" stroke="none">
<path d="M2612 4580 c-208 -17 -434 -73 -626 -155 -644 -275 -1079 -823 -1213
-1527 -14 -73 -17 -145 -17 -333 0 -224 2 -249 27 -370 176 -828 802 -1455
1617 -1619 200 -41 363 -48 935 -43 583 5 590 5 743 79 140 66 240 184 277
323 22 87 23 1242 0 1328 -46 177 -181 321 -354 379 -64 22 -80 22 -641 26
-397 2 -586 0 -612 -8 -91 -27 -107 -146 -25 -192 17 -10 165 -14 617 -18
l595 -5 43 -23 c66 -35 119 -88 149 -150 l28 -57 0 -615 0 -615 -30 -53 c-47
-85 -125 -138 -247 -167 -94 -22 -1169 -22 -1327 0 -693 97 -1277 584 -1500
1253 -185 554 -76 1178 286 1647 290 375 715 622 1188 690 93 13 209 15 760
13 l650 -3 43 -23 c66 -35 119 -88 149 -150 l28 -57 5 -277 c5 -275 5 -277 29
-302 48 -51 142 -40 170 20 18 40 15 535 -4 607 -46 177 -181 321 -354 379
-65 22 -76 22 -676 24 -335 1 -656 -2 -713 -6z"/>
</g>
</svg>
