<?xml version="1.0" standalone="no"?>
<!DOCTYPE svg PUBLIC "-//W3C//DTD SVG 20010904//EN"
 "http://www.w3.org/TR/2001/REC-SVG-20010904/DTD/svg10.dtd">
<svg version="1.0" xmlns="http://www.w3.org/2000/svg"
 width="512.000000pt" height="512.000000pt" viewBox="0 0 512.000000 512.000000"
 preserveAspectRatio="xMidYMid meet">

<g transform="translate(0.000000,512.000000) scale(0.100000,-0.100000)"
fill="#000000" stroke="none">
<path d="M893 4581 c-44 -11 -77 -34 -110 -78 l-28 -36 -3 -1930 c-2 -2145 -8
-1963 65 -1993 47 -20 97 -4 124 40 19 31 19 59 14 1896 l-6 1865 35 -40 c19
-22 354 -411 743 -865 413 -481 722 -833 742 -844 46 -26 136 -26 182 0 20 11
338 374 769 876 l735 857 5 -1862 c5 -1738 6 -1865 22 -1889 25 -38 77 -53
121 -34 73 30 67 -152 65 1993 l-3 1931 -31 39 c-17 21 -46 47 -63 57 -42 24
-124 26 -173 2 -27 -13 -230 -244 -784 -889 -411 -480 -750 -872 -754 -872 -4
0 -343 392 -754 872 -494 576 -758 876 -779 886 -43 21 -95 27 -134 18z"/>
</g>
</svg>
