<?xml version="1.0" standalone="no"?>
<!DOCTYPE svg PUBLIC "-//W3C//DTD SVG 20010904//EN"
 "http://www.w3.org/TR/2001/REC-SVG-20010904/DTD/svg10.dtd">
<svg version="1.0" xmlns="http://www.w3.org/2000/svg"
 width="512.000000pt" height="512.000000pt" viewBox="0 0 512.000000 512.000000"
 preserveAspectRatio="xMidYMid meet">
<metadata>
Created by potrace 1.16, written by Peter Selinger 2001-2019
</metadata>
<g transform="translate(0.000000,512.000000) scale(0.100000,-0.100000)"
fill="#000000" stroke="none">
<path d="M955 5020 c-109 -23 -216 -60 -310 -107 -100 -51 -132 -73 -354 -249
-2 -2 49 -91 113 -198 l116 -195 -44 -63 c-24 -35 -57 -91 -74 -124 -56 -110
-335 -719 -335 -729 0 -5 69 -124 152 -263 148 -246 153 -253 174 -239 210
136 671 416 695 421 38 9 35 23 62 -239 11 -110 23 -210 26 -223 7 -36 -37
-48 -102 -28 -72 23 -171 21 -239 -5 -74 -28 -146 -100 -174 -174 -26 -70 -27
-181 -3 -245 l18 -45 -38 -58 c-20 -33 -40 -67 -43 -77 -3 -10 -19 -20 -38
-24 -62 -12 -151 -63 -199 -113 -62 -67 -82 -109 -116 -247 l-30 -116 174 0
174 0 0 -240 0 -240 -240 0 -240 0 0 -560 0 -560 2480 0 2480 0 0 560 0 560
-480 0 -480 0 0 128 c0 73 -6 152 -14 187 l-14 59 49 54 c81 89 139 224 139
324 l0 48 -84 0 -83 0 -6 -56 c-12 -116 -98 -232 -212 -286 -50 -23 -116 -36
-380 -78 l-320 -50 -28 33 c-78 89 -144 251 -155 381 l-8 84 110 53 c178 87
204 120 235 293 21 116 35 147 83 193 40 38 85 58 154 68 l52 7 4 -109 c6
-161 38 -210 207 -323 l111 -73 111 73 c155 103 197 162 208 290 l6 75 27 -35
c15 -19 38 -67 53 -105 32 -88 85 -159 155 -208 86 -60 125 -67 357 -67 l203
0 0 79 0 79 -187 4 c-164 3 -194 6 -233 25 -62 28 -105 77 -135 152 -13 35
-36 82 -49 106 -34 57 -126 139 -180 160 -25 10 -49 27 -57 42 -23 43 -116
120 -165 137 -61 21 -167 20 -230 -1 -35 -12 -67 -35 -112 -80 l-64 -63 -79 0
c-94 0 -167 -23 -237 -73 -96 -68 -147 -165 -172 -327 -16 -95 -19 -102 -75
-131 -39 -21 -47 -22 -55 -9 -20 30 -39 111 -45 192 -7 91 -36 205 -65 255
l-19 32 43 25 c101 59 183 185 193 297 l6 59 -87 0 -86 0 0 -30 c0 -44 -43
-123 -87 -159 -22 -18 -76 -44 -133 -62 -194 -65 -231 -89 -330 -218 -99 -129
-146 -161 -237 -161 -107 0 -107 0 23 131 l119 119 -63 62 -62 63 -119 -119
c-136 -135 -127 -136 -138 20 -9 133 -1 148 113 234 158 119 209 208 238 422
19 131 42 184 112 247 63 57 117 78 225 87 l79 7 79 106 c43 58 86 120 96 137
l17 30 119 -45 c120 -45 151 -71 87 -71 -45 -1 -138 -40 -189 -81 -23 -18 -55
-53 -71 -78 l-28 -46 76 -38 76 -38 36 42 c20 23 51 48 69 56 40 16 193 30
193 17 0 -5 -10 -26 -23 -46 -27 -45 -78 -85 -121 -93 -69 -14 -66 -10 -66
-96 l0 -79 44 0 c25 0 57 5 72 10 23 9 29 8 37 -5 49 -88 177 -200 292 -255
149 -71 133 -70 883 -70 l672 0 0 79 0 80 -662 3 c-732 4 -696 1 -832 70 -59
30 -159 116 -198 170 l-19 28 24 32 c39 52 46 71 82 208 l33 130 -94 0 -94 0
0 103 c0 216 -101 466 -211 523 -45 23 -135 18 -183 -10 -59 -35 -82 -83 -95
-197 -16 -141 -43 -209 -140 -341 l-56 -78 -48 3 -48 2 -118 251 c-138 294
-202 393 -336 522 -181 176 -393 285 -634 327 -120 21 -343 18 -456 -5z m72
-305 l-52 -155 -62 122 c-34 68 -62 126 -62 129 -1 6 151 46 221 58 3 0 -17
-69 -45 -154z m531 93 c45 -17 82 -32 82 -35 0 -10 -113 -193 -117 -189 -2 2
-11 30 -20 62 -12 47 -41 118 -81 197 -5 11 38 0 136 -35z m-291 -51 c43 -64
72 -142 82 -227 6 -46 11 -90 11 -97 0 -6 9 -14 20 -18 32 -10 167 -102 216
-147 57 -52 121 -134 162 -208 25 -45 118 -276 292 -733 l18 -48 -31 -41 c-18
-23 -57 -62 -87 -86 -194 -155 -193 -151 -188 -380 3 -161 4 -169 32 -227 38
-76 114 -153 190 -190 50 -24 76 -30 152 -33 168 -8 259 40 383 200 80 102 98
119 156 144 l35 14 29 -45 c34 -54 47 -105 60 -235 8 -81 24 -145 55 -221 5
-12 -1 -20 -23 -29 l-31 -12 0 -119 c0 -66 7 -149 15 -188 32 -154 111 -307
222 -430 l48 -53 365 56 c201 31 384 63 406 70 l42 14 5 -28 c4 -15 9 -80 13
-144 l7 -116 -502 0 c-567 0 -525 -6 -618 82 -106 101 -148 199 -158 373 -11
176 -42 259 -133 357 -95 101 -206 148 -352 148 -150 0 -260 -48 -359 -156
-27 -30 -61 -79 -76 -109 -47 -99 -82 -69 -149 133 -24 70 -51 143 -61 163
l-18 37 36 47 c53 68 70 131 65 229 -3 58 -11 93 -27 125 -31 60 -102 126
-159 147 -26 9 -51 21 -56 25 -8 7 -55 390 -56 450 0 24 4 27 48 33 135 18
287 145 326 273 6 19 0 23 -61 44 -37 12 -73 24 -80 26 -6 3 -21 -13 -32 -34
-24 -48 -90 -109 -140 -130 -25 -11 -83 -17 -191 -21 -108 -3 -164 -9 -185
-19 -16 -8 -146 -87 -287 -175 -141 -88 -260 -161 -264 -162 -7 -1 -154 233
-170 270 -7 15 295 670 337 732 100 148 255 257 430 301 l74 18 65 192 c36
105 67 191 70 191 3 0 15 -15 27 -33z m-510 -141 c56 -113 61 -125 44 -131
-11 -3 -47 -24 -80 -45 -34 -22 -65 -40 -69 -40 -13 0 -134 211 -129 224 5 13
152 116 166 116 3 0 34 -56 68 -124z m1128 -3 c43 -38 89 -82 102 -99 l24 -32
-101 -83 c-55 -46 -105 -84 -110 -84 -4 0 -40 31 -79 68 l-70 68 55 92 c79
130 83 137 93 137 5 0 44 -30 86 -67z m1149 -291 c33 -65 70 -172 62 -179 -8
-8 -151 56 -148 67 1 6 5 39 8 73 11 132 27 140 78 39z m-885 -59 c19 -38 44
-92 57 -120 l24 -53 -120 -60 -119 -60 -46 97 -45 96 37 31 c21 17 65 54 98
83 33 29 65 52 70 52 6 1 26 -29 44 -66z m175 -370 c18 -37 18 -38 -6 -52 -47
-29 -127 -123 -157 -182 -29 -57 -31 -60 -40 -38 -44 114 -71 184 -71 186 0 5
235 122 246 122 6 1 18 -16 28 -36z m1676 -1126 c58 -39 75 -79 75 -182 0 -73
-4 -97 -21 -125 -22 -38 -110 -110 -134 -110 -24 0 -112 72 -134 110 -30 51
-30 199 0 250 30 51 78 80 134 80 32 0 58 -7 80 -23z m-2972 -151 c15 -8 38
-26 51 -40 14 -14 32 -26 41 -26 9 0 27 12 41 26 99 107 269 46 269 -96 0 -38
-29 -110 -44 -110 -2 0 -27 16 -56 35 -116 78 -292 98 -436 50 -41 -14 -77
-25 -79 -25 -14 0 -3 99 15 128 40 65 132 92 198 58z m167 -335 c61 -28 131
-94 158 -147 8 -16 29 -74 47 -129 17 -55 46 -130 62 -167 l31 -67 -27 -32
c-44 -52 -63 -99 -99 -243 l-35 -136 199 0 199 0 83 -41 c97 -49 133 -73 147
-100 11 -19 0 -19 -615 -19 l-627 0 4 423 c4 463 4 459 68 552 33 48 99 98
158 120 20 7 71 14 112 14 63 1 85 -4 135 -28z m1103 -320 c54 -27 115 -88
141 -139 24 -46 41 -142 41 -227 0 -107 45 -237 116 -338 19 -26 34 -49 34
-52 0 -3 -108 -5 -240 -5 -209 0 -240 2 -240 15 0 32 -50 112 -97 155 -26 25
-86 63 -132 85 l-84 40 6 120 c3 66 11 137 17 157 25 87 118 181 204 208 54
17 186 6 234 -19z m-1898 -1321 l0 -400 -80 0 -80 0 0 400 0 400 80 0 80 0 0
-400z m480 240 l0 -160 -160 0 -160 0 0 160 0 160 160 0 160 0 0 -160z m320
-240 l0 -400 -80 0 -80 0 0 400 0 400 80 0 80 0 0 -400z m480 240 l0 -160
-160 0 -160 0 0 160 0 160 160 0 160 0 0 -160z m320 -240 l0 -400 -80 0 -80 0
0 400 0 400 80 0 80 0 0 -400z m480 240 l0 -160 -160 0 -160 0 0 160 0 160
160 0 160 0 0 -160z m320 -240 l0 -400 -80 0 -80 0 0 400 0 400 80 0 80 0 0
-400z m480 240 l0 -160 -160 0 -160 0 0 160 0 160 160 0 160 0 0 -160z m320
-240 l0 -400 -80 0 -80 0 0 400 0 400 80 0 80 0 0 -400z m480 240 l0 -160
-160 0 -160 0 0 160 0 160 160 0 160 0 0 -160z m320 -240 l0 -400 -80 0 -80 0
0 400 0 400 80 0 80 0 0 -400z m480 240 l0 -160 -160 0 -160 0 0 160 0 160
160 0 160 0 0 -160z m-4000 -480 l0 -160 -160 0 -160 0 0 160 0 160 160 0 160
0 0 -160z m800 0 l0 -160 -160 0 -160 0 0 160 0 160 160 0 160 0 0 -160z m800
0 l0 -160 -160 0 -160 0 0 160 0 160 160 0 160 0 0 -160z m800 0 l0 -160 -160
0 -160 0 0 160 0 160 160 0 160 0 0 -160z m800 0 l0 -160 -160 0 -160 0 0 160
0 160 160 0 160 0 0 -160z m800 0 l0 -160 -160 0 -160 0 0 160 0 160 160 0
160 0 0 -160z"/>
<path d="M900 4060 c-13 -13 -20 -33 -20 -60 0 -53 27 -80 80 -80 53 0 80 27
80 80 0 53 -27 80 -80 80 -27 0 -47 -7 -60 -20z"/>
<path d="M900 2140 c-13 -13 -20 -33 -20 -60 0 -53 27 -80 80 -80 27 0 47 7
60 20 13 13 20 33 20 60 0 53 -27 80 -80 80 -27 0 -47 -7 -60 -20z"/>
<path d="M880 1520 l0 -160 80 0 80 0 0 160 0 160 -80 0 -80 0 0 -160z"/>
<path d="M2020 1820 c-13 -13 -20 -33 -20 -60 0 -27 7 -47 20 -60 13 -13 33
-20 60 -20 27 0 47 7 60 20 13 13 20 33 20 60 0 27 -7 47 -20 60 -13 13 -33
20 -60 20 -27 0 -47 -7 -60 -20z"/>
<path d="M2500 3420 c-13 -13 -20 -33 -20 -60 0 -53 27 -80 80 -80 27 0 47 7
60 20 13 13 20 33 20 60 0 27 -7 47 -20 60 -13 13 -33 20 -60 20 -27 0 -47 -7
-60 -20z"/>
<path d="M3460 2300 c-13 -13 -20 -33 -20 -60 0 -53 27 -80 80 -80 53 0 80 27
80 80 0 27 -7 47 -20 60 -13 13 -33 20 -60 20 -27 0 -47 -7 -60 -20z"/>
</g>
</svg>
