<svg width="100" height="100" viewBox="0 0 100 100" fill="none" xmlns="http://www.w3.org/2000/svg">
<circle cx="50" cy="50" r="50" fill="#EF8801"/>
<path d="M49.5037 46.144C40.9763 46.144 28.9722 59.016 28.9722 67.1462C28.8777 70.8075 31.7506 73 36.5896 73C41.8326 73 45.3029 70.3669 49.5037 70.3669C53.7476 70.3669 57.2286 73 62.4178 73C67.1559 73 70.1255 70.8096 70.1255 67.1515C70.0352 59.0265 58.0343 46.144 49.5037 46.144ZM33.6888 44.8222C32.5746 41.1903 29.1226 38.8299 25.994 39.5642C22.8654 40.2986 21.2362 43.836 22.3508 47.4658C23.4649 51.106 26.9169 53.4664 30.0455 52.7321C33.1741 51.9977 34.7954 48.4519 33.6888 44.8222ZM42.7888 42.6401C46.1054 41.7877 47.7707 37.4892 46.4954 32.845C45.2202 28.2008 41.4996 25.3861 38.17 26.1446C34.8534 26.997 33.1881 31.2955 34.4634 35.9397C35.7409 40.4895 39.4582 43.5003 42.7888 42.6401ZM73.022 39.5663C69.8934 38.9264 66.4414 41.1924 65.3273 44.8242C64.2131 48.4572 65.8376 51.9967 68.9662 52.731C72.0948 53.371 75.5329 51.105 76.661 47.4731C77.7708 43.836 76.0518 40.3007 73.022 39.5663ZM56.2186 42.6401C59.4525 43.4925 63.2688 40.4895 64.544 35.9397C65.8193 31.3899 64.1546 26.9965 60.8374 26.1446C57.6035 25.2923 53.7873 28.2952 52.512 32.845C51.2335 37.3948 52.8988 41.7904 56.2186 42.6401Z" fill="#FDF7EC"/>
</svg>
