<svg width="64" height="64" viewBox="0 0 64 64" fill="none" xmlns="http://www.w3.org/2000/svg">
<path d="M61.5905 0H45.537C42.4831 0 40.9533 3.68545 43.1133 5.84112L47.3348 10.0555L39.2582 18.1179C34.9768 15.1724 29.9854 13.6982 25.0011 13.6982C18.1591 13.6979 11.32 16.4698 6.31008 22.0229C-2.36678 31.6479 -2.0517 46.9728 6.987 56.2541C12.0557 61.4622 18.6054 64 25.1494 64C31.5822 64 38.0292 61.5506 42.9422 56.6505C51.6547 47.9551 52.6042 34.4665 45.8535 24.7004L53.9301 16.638L58.1516 20.8524C58.8531 21.5424 59.7085 21.8561 60.5497 21.8561C62.3033 21.8561 63.9999 20.4874 63.9999 18.4344V2.28113C63.9999 1.14912 62.9734 0 61.5905 0ZM34.8442 48.5881C32.171 51.2556 28.6595 52.5901 25.1494 52.5901C21.6379 52.5901 18.1278 51.2563 15.4531 48.5881C10.1067 43.2517 10.1067 34.5691 15.4531 29.227C18.1263 26.5595 21.6379 25.225 25.1494 25.225C28.6609 25.225 32.171 26.5591 34.8442 29.227C40.1906 34.5591 40.1906 43.256 34.8442 48.5881Z" fill="black"/>
</svg>
