<svg width="24" height="24" viewBox="0 0 24 24" fill="none" xmlns="http://www.w3.org/2000/svg">
<path d="M23.0965 0H17.0764C15.9312 0 15.3575 1.38205 16.1675 2.19042L17.7506 3.77082L14.7218 6.79422C13.1163 5.68965 11.2445 5.13683 9.37543 5.13683C6.80969 5.13672 4.24501 6.17617 2.36628 8.2586C-0.887543 11.868 -0.769387 17.6148 2.62013 21.0953C4.52089 23.0484 6.97703 24 9.43103 24C11.8433 24 14.261 23.0815 16.1033 21.244C19.3705 17.9832 19.7266 12.9249 17.1951 9.26266L20.2238 6.23926L21.8069 7.81966C22.0699 8.07843 22.3907 8.19605 22.7062 8.19605C23.3638 8.19605 24 7.68279 24 6.91291V0.855426C24 0.430921 23.6151 0 23.0965 0ZM13.0666 18.2206C12.0641 19.2209 10.7473 19.7213 9.43103 19.7213C8.11421 19.7213 6.79792 19.2211 5.79494 18.2206C3.79003 16.2194 3.79003 12.9634 5.79494 10.9601C6.79739 9.95983 8.11421 9.4594 9.43103 9.4594C10.7479 9.4594 12.0641 9.95967 13.0666 10.9601C15.0715 12.9597 15.0715 16.221 13.0666 18.2206Z" fill="black"/>
</svg>
