<?xml version="1.0" standalone="no"?>
<!DOCTYPE svg PUBLIC "-//W3C//DTD SVG 20010904//EN"
 "http://www.w3.org/TR/2001/REC-SVG-20010904/DTD/svg10.dtd">
<svg version="1.0" xmlns="http://www.w3.org/2000/svg"
 width="512.000000pt" height="512.000000pt" viewBox="0 0 512.000000 512.000000"
 preserveAspectRatio="xMidYMid meet">
<metadata>
Created by potrace 1.16, written by Peter Selinger 2001-2019
</metadata>
<g transform="translate(0.000000,512.000000) scale(0.100000,-0.100000)"
fill="#000000" stroke="none">
<path d="M3920 5098 c-41 -28 -70 -81 -70 -128 0 -47 29 -100 70 -127 32 -23
38 -23 354 -23 l321 0 -580 -580 c-319 -319 -583 -580 -586 -580 -3 0 -32 21
-65 46 -273 215 -607 361 -954 419 -134 23 -402 30 -541 16 -387 -41 -738
-178 -1047 -408 -95 -71 -274 -244 -354 -340 -223 -273 -373 -601 -440 -963
-29 -156 -31 -532 -5 -685 80 -455 270 -827 582 -1140 331 -332 757 -538 1228
-596 128 -15 482 -7 597 15 216 41 377 93 565 185 620 303 1050 901 1140 1586
17 134 20 402 5 525 -48 386 -213 779 -445 1060 l-45 55 577 578 578 577 5
-317 c5 -313 5 -319 28 -351 32 -44 77 -66 136 -65 54 1 88 21 124 73 l22 33
0 526 c0 507 -1 527 -20 559 -11 18 -34 41 -52 52 -32 19 -52 20 -564 20
l-531 0 -33 -22z m-1494 -1292 c344 -72 626 -222 878 -465 265 -257 434 -567
508 -932 20 -100 23 -142 23 -344 -1 -258 -13 -341 -81 -545 -228 -684 -847
-1164 -1557 -1208 -531 -33 -1011 151 -1384 529 -246 250 -402 549 -475 909
-19 98 -23 145 -23 325 0 237 16 345 80 543 46 140 158 363 242 482 87 122
291 326 413 413 193 137 467 254 697 296 155 29 159 29 368 26 156 -3 212 -8
311 -29z"/>
</g>
</svg>
