<svg width="83" height="64" viewBox="0 0 83 64" fill="none" xmlns="http://www.w3.org/2000/svg">
<path d="M16.0027 0C7.1612 0 0 7.1612 0 15.8741V47.7509C0 56.5924 7.1612 63.625 16.0027 63.625C24.8442 63.625 32.0054 56.4638 32.0054 47.7509V15.8741C32.0054 7.1612 24.847 0 16.0027 0ZM22.861 32.0054H9.14439V16.0027C9.14439 12.2163 12.2163 9.14439 16.0027 9.14439C19.789 9.14439 22.861 12.2163 22.861 16.0027V32.0054ZM42.8358 27.7475C42.3357 27.2474 41.4784 27.3189 41.0669 27.8725C34.6015 36.8026 35.2973 49.319 43.3358 57.3632C51.3915 65.4003 63.9107 66.1147 72.8408 59.6321C73.4123 59.2214 73.4479 58.3819 72.948 57.8819L42.8358 27.7475ZM75.6555 25.0328C67.6185 16.9957 55.095 16.2984 46.1649 22.7652C45.5934 23.176 45.5398 24.0333 46.0399 24.5341L76.1735 54.6392C76.6736 55.1393 77.513 55.0857 77.9238 54.532C84.4142 45.5934 83.714 33.0913 75.6555 25.0328Z" fill="black"/>
</svg>
