<svg width="80" height="64" viewBox="0 0 80 64" fill="none" xmlns="http://www.w3.org/2000/svg">
<path d="M18.8377 11.5964C24.3752 7.28391 31.4752 4.00016 40.0002 4.00016C50.1002 4.00016 58.1877 8.60516 64.0752 14.0752C69.9252 19.5002 73.8377 25.8877 75.6877 30.4627C76.1002 31.4502 76.1002 32.5502 75.6877 33.5377C74.0127 37.5752 70.6502 43.2627 65.7002 48.3377L78.8502 58.6377C80.1502 59.6627 80.3877 61.5502 79.3627 62.8502C78.3377 64.1502 76.4502 64.3877 75.1502 63.3627L1.14966 5.36141C-0.154339 4.33891 -0.382964 2.45391 0.639161 1.14966C1.66141 -0.154339 3.54641 -0.382964 4.85141 0.639161L18.8377 11.5964ZM27.8877 18.6877L39.1752 27.5377C39.7002 26.4752 40.0002 25.2752 40.0002 23.8877C40.0002 22.5627 39.5127 21.2127 38.9502 20.0502C39.3002 20.0127 39.6502 19.8877 40.0002 19.8877C46.6252 19.8877 52.0002 25.2627 52.0002 31.8877C52.0002 33.7127 51.6377 35.3377 50.8877 36.8127L55.8252 40.5877C57.2127 38.0377 58.0002 35.1127 58.0002 31.8877C58.0002 22.0627 49.9377 13.8877 40.0002 13.8877C35.3377 13.8877 31.0752 15.7752 27.8877 18.6877ZM40.0002 60.0002C29.9002 60.0002 21.8127 55.4002 15.9252 49.9252C10.0777 44.3877 6.16766 38.0002 4.30766 33.5377C3.89766 32.5502 3.89766 31.4502 4.30766 30.4627C5.50016 27.6002 7.53641 23.9002 10.3864 20.1877L22.1752 29.4752C22.0627 30.3002 22.0002 31.1377 22.0002 31.8877C22.0002 41.9377 30.0627 50.0002 40.0002 50.0002C42.3377 50.0002 44.5752 49.5502 46.6252 48.7377L55.7752 55.9377C51.2377 58.3877 45.9752 60.0002 40.0002 60.0002Z" fill="black"/>
</svg>
