<svg width="64" height="57" viewBox="0 0 64 57" fill="none" xmlns="http://www.w3.org/2000/svg">
<path d="M32 25C22.0787 25 8.11249 40.3375 8.11249 50.025C8.00249 54.3875 11.345 57 16.975 57C23.075 57 27.1125 53.8625 32 53.8625C36.9375 53.8625 40.9875 57 47.025 57C52.5375 57 55.9925 54.39 55.9925 50.0312C55.8875 40.35 41.925 25 32 25ZM13.6 23.425C12.3037 19.0975 8.28749 16.285 4.64749 17.16C1.00749 18.035 -0.888012 22.25 0.408738 26.575C1.70499 30.9125 5.72124 33.725 9.36124 32.85C13.0012 31.975 14.8875 27.75 13.6 23.425ZM24.1875 20.825C28.0462 19.8094 29.9837 14.6875 28.5 9.15375C27.0162 3.62 22.6875 0.266251 18.8137 1.17C14.955 2.18563 13.0175 7.3075 14.5012 12.8413C15.9875 18.2625 20.3125 21.85 24.1875 20.825ZM59.3625 17.1625C55.7225 16.4 51.7062 19.1 50.41 23.4275C49.1137 27.7563 51.0037 31.9738 54.6437 32.8488C58.2837 33.6113 62.2837 30.9113 63.5962 26.5838C64.8875 22.25 62.8875 18.0375 59.3625 17.1625ZM39.8125 20.825C43.575 21.8406 48.015 18.2625 49.4987 12.8413C50.9825 7.42 49.0456 2.185 45.1862 1.17C41.4237 0.154376 36.9837 3.7325 35.5 9.15375C34.0125 14.575 35.95 19.8125 39.8125 20.825Z" fill="black"/>
</svg>
