<svg width="64" height="65" viewBox="0 0 64 65" fill="none" xmlns="http://www.w3.org/2000/svg">
<path d="M0 32.5C0 14.5488 14.325 0 32 0C49.675 0 64 14.5488 64 32.5C64 50.4512 49.675 65 32 65C14.325 65 0 50.4512 0 32.5ZM32 46.7188C33.6625 46.7188 35 45.3604 35 43.6719V35.5469H43C44.6625 35.5469 46 34.1885 46 32.5C46 30.8115 44.6625 29.4531 43 29.4531H35V21.3281C35 19.6396 33.6625 18.2812 32 18.2812C30.3375 18.2812 29 19.6396 29 21.3281V29.4531H21C19.3375 29.4531 18 30.8115 18 32.5C18 34.1885 19.3375 35.5469 21 35.5469H29V43.6719C29 45.3604 30.3375 46.7188 32 46.7188Z" fill="black"/>
</svg>
