<svg width="72" height="56" viewBox="0 0 72 56" fill="none" xmlns="http://www.w3.org/2000/svg">
<path d="M34.95 16.05C35.3 16.0125 35.65 16 36 16C42.625 16 48 21.2625 48 28C48 34.625 42.625 40 36 40C29.2625 40 24 34.625 24 28C24 27.65 24.0125 27.3 24.05 26.95C25.2125 27.5125 26.5625 28 28 28C32.4125 28 36 24.4125 36 20C36 18.5625 35.5125 17.2125 34.95 16.05ZM60.075 10.075C65.925 15.5 69.8375 21.8875 71.6875 26.4625C72.1 27.45 72.1 28.55 71.6875 29.5375C69.8375 34 65.925 40.3875 60.075 45.925C54.1875 51.4 46.1 56 36 56C25.9 56 17.8125 51.4 11.9275 45.925C6.07752 40.3875 2.16752 34 0.307641 29.5375C-0.102547 28.55 -0.102547 27.45 0.307641 26.4625C2.16752 21.8875 6.07752 15.5 11.9275 10.075C17.8125 4.605 25.9 0 36 0C46.1 0 54.1875 4.605 60.075 10.075ZM36 10C26.0625 10 18 18.0625 18 28C18 37.9375 26.0625 46 36 46C45.9375 46 54 37.9375 54 28C54 18.0625 45.9375 10 36 10Z" fill="black"/>
</svg>
