<svg width="64" height="64" viewBox="0 0 64 64" fill="none" xmlns="http://www.w3.org/2000/svg">
<path d="M63.0125 8.87889L55.0125 0.878904C53.8407 -0.292968 51.9425 -0.292968 50.77 0.878904C49.5975 2.05078 49.5982 3.9489 50.77 5.12139L52.7625 7.00014L48 11.7576L41.1213 4.87889C39.9494 3.70702 38.0513 3.70702 36.8788 4.87889C35.8204 5.93727 35.7697 7.56264 36.6229 8.73639L55.2604 27.3738C55.7875 27.7626 56.3875 28.0001 57 28.0001C57.7676 28.0001 58.535 27.7071 59.1213 27.1212C60.2931 25.9493 60.2931 24.0512 59.1213 22.8787L52.2375 16.0001L57 11.2426L58.8788 13.1214C59.4625 13.7126 60.2375 14.0001 61 14.0001C61.7625 14.0001 62.535 13.7071 63.1213 13.1213C64.2875 11.9489 64.2875 10.0514 63.0125 8.87889ZM26.1001 19.2626L33.4201 26.5826C34.2013 27.3638 34.2013 28.6301 33.4201 29.4101C33.0251 29.8001 32.5126 30.0001 32.0001 30.0001C31.4876 30.0001 30.9751 29.8001 30.5876 29.4126L23.2626 22.1001L18.1001 27.2626L25.4201 34.5826C26.2013 35.3638 26.2013 36.6301 25.4201 37.4101C25.0251 37.8001 24.5126 38.0001 24.0001 38.0001C23.4876 38.0001 22.9751 37.8001 22.5876 37.4126L15.2626 30.1001L10.3439 35.0126C8.84264 36.5126 8.00014 38.5501 8.00014 40.6751V51.76L0.878904 58.8813C-0.292968 60.0531 -0.292968 61.9513 0.878904 63.1238C1.46515 63.7125 2.23265 64 3.00015 64C3.76765 64 4.53515 63.707 5.12139 63.1211L12.2426 56H23.3289C25.4501 56 27.4851 55.157 28.9863 53.6563L52.4363 30.2063L33.7988 11.5689L26.1001 19.2626Z" fill="black"/>
</svg>
